HIERARCHY
ROOT joint_Root
{
	OFFSET 0.0 0.0 0.0
	CHANNELS 6 Xposition Yposition Zposition Zrotation Xrotation Yrotation 
	JOINT Hips
	{
		OFFSET 4.5925 91.4895 -427.239
		CHANNELS 6 Xposition Yposition Zposition Zrotation Xrotation Yrotation 
		JOINT Spine
		{
			OFFSET 15.7357 0.0 0.0
			CHANNELS 6 Xposition Yposition Zposition Zrotation Xrotation Yrotation 
			JOINT Chest
			{
				OFFSET 8.98455 -0.406207 0.0
				CHANNELS 6 Xposition Yposition Zposition Zrotation Xrotation Yrotation 
				JOINT Neck
				{
					OFFSET 16.3773 0.0 0.0
					CHANNELS 6 Xposition Yposition Zposition Zrotation Xrotation Yrotation 
					JOINT Head
					{
						OFFSET 6.45672 0.0 0.0
						CHANNELS 6 Xposition Yposition Zposition Zrotation Xrotation Yrotation 
						End Site
						{
							OFFSET 0.0 0.0 0.0
						}
					}
				}
				JOINT Shoulder_L
				{
					OFFSET 12.9942 -0.242716 4.98039
					CHANNELS 6 Xposition Yposition Zposition Zrotation Xrotation Yrotation 
					JOINT UpperArm_L
					{
						OFFSET 5.34809 0.0 0.0
						CHANNELS 6 Xposition Yposition Zposition Zrotation Xrotation Yrotation 
						JOINT LowerArm_L
						{
							OFFSET 24.3286 1.87007e-05 0.0
							CHANNELS 6 Xposition Yposition Zposition Zrotation Xrotation Yrotation 
							JOINT Hand_L
							{
								OFFSET 22.2916 0.0 0.0
								CHANNELS 6 Xposition Yposition Zposition Zrotation Xrotation Yrotation 
								End Site
								{
									OFFSET 0.0 0.0 0.0
								}
							}
						}
					}
				}
				JOINT Shoulder_R
				{
					OFFSET 12.9945 -0.242716 -4.98039
					CHANNELS 6 Xposition Yposition Zposition Zrotation Xrotation Yrotation 
					JOINT UpperArm_R
					{
						OFFSET -5.34813 0.0 0.0
						CHANNELS 6 Xposition Yposition Zposition Zrotation Xrotation Yrotation 
						JOINT LowerArm_R
						{
							OFFSET -24.3289 0.000322201 0.0
							CHANNELS 6 Xposition Yposition Zposition Zrotation Xrotation Yrotation 
							JOINT Hand_R
							{
								OFFSET -22.2915 -0.000108084 0.0
								CHANNELS 6 Xposition Yposition Zposition Zrotation Xrotation Yrotation 
								End Site
								{
									OFFSET 0.0 0.0 0.0
								}
							}
						}
					}
				}
			}
		}
		JOINT UpperLeg_L
		{
			OFFSET -2.19248 -6.46944 0.0
			CHANNELS 6 Xposition Yposition Zposition Zrotation Xrotation Yrotation 
			JOINT LowerLeg_L
			{
				OFFSET 39.0811 0.0 -1.23785e-05
				CHANNELS 6 Xposition Yposition Zposition Zrotation Xrotation Yrotation 
				JOINT Foot_L
				{
					OFFSET 40.9854 0.0 -1.26872e-05
					CHANNELS 6 Xposition Yposition Zposition Zrotation Xrotation Yrotation 
					JOINT Toes_L
					{
						OFFSET 11.7543 0.0 0.0
						CHANNELS 6 Xposition Yposition Zposition Zrotation Xrotation Yrotation 
						End Site
						{
							OFFSET 0.0 0.0 0.0
						}
					}
				}
			}
		}
		JOINT UpperLeg_R
		{
			OFFSET -2.19251 6.46944 0.0
			CHANNELS 6 Xposition Yposition Zposition Zrotation Xrotation Yrotation 
			JOINT LowerLeg_R
			{
				OFFSET -39.0811 -0.00228153 -0.0401928
				CHANNELS 6 Xposition Yposition Zposition Zrotation Xrotation Yrotation 
				JOINT Foot_R
				{
					OFFSET -40.9854 0.0 0.0
					CHANNELS 6 Xposition Yposition Zposition Zrotation Xrotation Yrotation 
					JOINT Toes_R
					{
						OFFSET -11.7543 0.0 0.0
						CHANNELS 6 Xposition Yposition Zposition Zrotation Xrotation Yrotation 
						End Site
						{
							OFFSET 0.0 0.0 0.0
						}
					}
				}
			}
		}
	}
}
MOTION
Frames:	6
Frame Time:	0.0333333
0.000000 0.000000 0.000000 0.000000 0.000000 -0.000000 132.617000 90.698200 -14.896800 90.784300 0.771942 -0.503276 15.735700 0.000005 -0.000001 91.809300 81.552600 -91.478900 8.984550 -0.406207 -0.000000 9.119130 0.534462 0.617743 16.377300 -0.000001 -0.000001 -0.278629 -5.404050 2.186840 6.456720 -0.000001 -0.000000 -2.488790 -5.594080 -0.066909 12.994200 -0.242716 4.980390 -90.717400 2.562580 -74.355000 5.348090 -0.000007 -0.000001 -68.866100 29.655500 -9.408200 24.328600 0.000019 0.000005 4.406040 18.839800 -13.420400 22.291600 -0.000001 0.000005 12.912700 5.129630 4.426030 12.994500 -0.242716 -4.980390 88.891600 8.355850 -82.416700 -5.348130 -0.000001 -0.000004 -56.062100 27.044300 -24.128100 -24.328900 0.000322 -0.000009 -0.450247 -0.970254 -24.831900 -22.291500 -0.000108 -0.000004 17.120200 5.382430 -2.374390 -2.192480 -6.469440 -0.000000 -179.453000 -8.502260 -26.065400 39.081100 -0.000007 -0.000012 0.033805 -0.029913 48.492300 40.985400 -0.000006 -0.000013 -1.206450 -0.459536 -61.976500 11.754300 -0.000000 0.000003 -0.003282 -0.043763 -18.356600 -2.192510 6.469440 -0.000001 -178.217000 21.925900 165.478000 -39.081100 -0.002282 -0.040193 0.030482 -0.041406 33.288400 -40.985400 0.000008 0.000006 9.208700 1.374150 -70.517100 -11.754300 -0.000006 -0.000006 -0.004271 -0.054233 -18.779300
0.000000 0.000000 0.000000 0.000000 0.000000 -0.000000 132.918000 90.813000 -13.380000 90.618100 0.637341 -1.063150 15.735700 0.000005 -0.000001 92.667700 81.626100 -92.366500 8.984550 -0.406207 -0.000000 8.962320 0.778593 0.540903 16.377300 -0.000001 -0.000001 -0.699017 -5.485430 2.190490 6.456720 -0.000001 -0.000000 -2.897800 -5.748170 -0.164998 12.994200 -0.242716 4.980390 -90.727200 2.586400 -74.289600 5.348090 -0.000007 -0.000001 -69.364000 29.311900 -8.647660 24.328600 0.000019 0.000005 4.305650 19.409500 -12.765300 22.291600 -0.000001 0.000005 12.368100 5.126180 4.507280 12.994500 -0.242716 -4.980390 88.928000 8.199570 -82.525500 -5.348130 -0.000001 -0.000004 -55.144300 26.530100 -25.344900 -24.328900 0.000322 -0.000009 -0.825909 -1.640410 -26.694300 -22.291500 -0.000108 -0.000004 17.467700 5.396410 -2.820610 -2.192480 -6.469440 -0.000000 -179.630000 -8.305760 -25.846800 39.081100 -0.000007 -0.000012 0.017824 -0.022647 38.200600 40.985400 -0.000006 -0.000013 -1.308740 -0.335488 -60.845300 11.754300 -0.000000 0.000003 -0.002707 -0.037246 -18.091400 -2.192510 6.469440 -0.000001 -178.550000 22.813000 166.635000 -39.081100 -0.002282 -0.040193 0.027300 -0.038083 32.222400 -40.985400 0.000008 0.000006 8.956500 2.528960 -71.166100 -11.754300 -0.000006 -0.000006 -0.004539 -0.056933 -18.889300
0.000000 0.000000 0.000000 0.000000 0.000000 -0.000000 133.292000 90.739100 -11.725700 90.306500 0.404993 -1.545160 15.735700 0.000005 -0.000001 93.576200 81.679500 -93.282000 8.984550 -0.406207 -0.000000 8.841030 1.035480 0.507854 16.377300 -0.000001 -0.000001 -1.096370 -5.503210 2.219080 6.456720 -0.000001 -0.000000 -3.360640 -5.819450 -0.091121 12.994200 -0.242716 4.980390 -90.742200 2.633800 -74.256300 5.348090 -0.000007 -0.000001 -69.844800 28.900600 -8.065550 24.328600 0.000019 0.000005 4.346410 19.724100 -12.691400 22.291600 -0.000001 0.000005 12.050600 5.127050 4.486400 12.994500 -0.242716 -4.980390 88.956300 8.135980 -82.664900 -5.348130 -0.000001 -0.000004 -54.396400 25.988000 -25.927700 -24.328900 0.000322 -0.000009 -1.084080 -1.953630 -29.006000 -22.291500 -0.000108 -0.000004 17.950200 5.407450 -3.180980 -2.192480 -6.469440 -0.000000 -179.910000 -8.550870 -25.470100 39.081100 -0.000007 -0.000012 0.016548 -0.030674 28.345200 40.985400 -0.000006 -0.000013 -0.897811 1.103780 -59.014300 11.754300 -0.000000 0.000003 -0.002796 -0.038281 -18.133500 -2.192510 6.469440 -0.000001 -178.855000 23.306500 167.641000 -39.081100 -0.002282 -0.040193 0.024309 -0.033806 31.861400 -40.985400 0.000008 0.000006 8.635470 3.295720 -72.144800 -11.754300 -0.000006 -0.000006 -0.004604 -0.057578 -18.915600
0.000000 0.000000 0.000000 0.000000 0.000000 -0.000000 133.803000 90.538700 -9.885590 90.400600 0.191831 -2.040180 15.735700 0.000005 -0.000001 93.947900 81.740900 -93.843000 8.984550 -0.406207 -0.000000 8.713120 1.132500 0.123456 16.377300 -0.000001 -0.000001 -1.278350 -5.487050 2.323480 6.456720 -0.000001 -0.000000 -3.894150 -5.839360 0.181214 12.994200 -0.242716 4.980390 -90.761600 2.709780 -74.296100 5.348090 -0.000007 -0.000001 -70.120200 28.742100 -8.007420 24.328600 0.000019 0.000005 4.345130 19.538700 -12.799700 22.291600 -0.000001 0.000005 11.888200 5.128260 4.458240 12.994500 -0.242716 -4.980390 88.970700 8.247340 -82.861100 -5.348130 -0.000001 -0.000004 -53.752800 25.476100 -26.135800 -24.328900 0.000322 -0.000009 -1.284930 -2.119250 -31.215300 -22.291500 -0.000108 -0.000004 18.414700 5.415430 -3.445730 -2.192480 -6.469440 -0.000000 178.664000 -9.659640 -27.395300 39.081100 -0.000007 -0.000012 0.041187 -0.089933 24.606400 40.985400 -0.000006 -0.000013 1.233050 2.552700 -56.186800 11.754300 -0.000000 0.000003 -0.002950 -0.040047 -18.205400 -2.192510 6.469440 -0.000001 -179.716000 23.513400 168.360000 -39.081100 -0.002282 -0.040193 0.021352 -0.028606 32.257600 -40.985400 0.000008 0.000006 7.906800 3.667710 -73.323300 -11.754300 -0.000006 -0.000006 -0.004475 -0.056292 -18.863200
0.000000 0.000000 0.000000 0.000000 0.000000 -0.000000 134.402000 90.156300 -7.573550 90.640100 0.102947 -2.251060 15.735700 0.000005 -0.000001 93.442400 81.811900 -93.596300 8.984550 -0.406207 -0.000000 8.582800 0.977454 -0.380997 16.377300 -0.000001 -0.000001 -1.155160 -5.452070 2.484670 6.456720 -0.000001 -0.000000 -3.995130 -5.768100 0.447176 12.994200 -0.242716 4.980390 -90.795200 2.838580 -74.342800 5.348090 -0.000007 -0.000001 -70.144100 29.212100 -8.356300 24.328600 0.000019 0.000005 4.324840 19.198900 -12.951200 22.291600 -0.000001 0.000005 11.783000 5.129590 4.427160 12.994500 -0.242716 -4.980390 88.955400 8.414180 -82.896900 -5.348130 -0.000001 -0.000004 -53.069900 25.614400 -26.310200 -24.328900 0.000322 -0.000009 -1.544240 -2.403490 -32.715000 -22.291500 -0.000108 -0.000004 18.900900 5.422260 -3.675270 -2.192480 -6.469440 -0.000000 177.702000 -10.319500 -28.484000 39.081100 -0.000007 -0.000012 0.017660 -0.037316 25.325200 40.985400 -0.000006 -0.000013 1.969570 1.686770 -53.389400 11.754300 -0.000000 0.000003 -0.002421 -0.033877 -17.954400 -2.192510 6.469440 -0.000001 179.055000 22.767200 169.358000 -39.081100 -0.002282 -0.040193 0.019767 -0.025024 33.355300 -40.985400 0.000008 0.000006 7.024530 3.103760 -74.778200 -11.754300 -0.000006 -0.000006 -0.003955 -0.050969 -18.646400
0.000000 0.000000 0.000000 0.000000 0.000000 -0.000000 135.103000 89.616600 -4.784050 91.202100 -0.143727 -2.014080 15.735700 0.000005 -0.000001 92.820700 81.900500 -93.393600 8.984550 -0.406207 -0.000000 8.418190 0.790184 -1.202880 16.377300 -0.000001 -0.000001 -0.727634 -5.418720 2.579530 6.456720 -0.000001 -0.000000 -3.306560 -5.676660 0.825103 12.994200 -0.242716 4.980390 -90.836000 2.971500 -74.279000 5.348090 -0.000007 -0.000001 -69.817200 30.302300 -9.139590 24.328600 0.000019 0.000005 4.318980 18.957600 -13.087200 22.291600 -0.000001 0.000005 11.575000 5.137290 4.245350 12.994500 -0.242716 -4.980390 88.907600 8.640840 -82.766800 -5.348130 -0.000001 -0.000004 -52.914900 26.024100 -26.031800 -24.328900 0.000322 -0.000009 -1.779080 -2.708920 -33.296900 -22.291500 -0.000108 -0.000004 19.063700 5.431000 -3.973490 -2.192480 -6.469440 -0.000000 177.479000 -9.145870 -28.962400 39.081100 -0.000007 -0.000012 -0.032601 0.056731 29.884900 40.985400 -0.000006 -0.000013 1.831160 0.272968 -53.758200 11.754300 -0.000000 0.000003 0.000484 0.008585 -16.228900 -2.192510 6.469440 -0.000001 177.203000 21.412700 170.681000 -39.081100 -0.002282 -0.040193 0.016536 -0.018724 35.276900 -40.985400 0.000008 0.000006 5.677050 2.184480 -76.050200 -11.754300 -0.000006 -0.000006 -0.087111 -0.145888 -18.714400
